<svg viewBox="0 0 33 33" xmlns="http://www.w3.org/2000/svg"><path d="m39.5 954c-9.1038285 0-16.5 7.408009-16.5 16.526409 0 8.277579 6.0956497 15.127941 14.0346682 16.322471l.8613278.130579v-13.022764h-3.8979495v-2.643873h3.8979495v-3.510981c0-2.162017.5179837-3.585953 1.375488-4.479327.857505-.893372 2.124519-1.343944 3.8876955-1.343944 1.409856 0 1.958337.085561 2.4799808.149653v2.164103h-1.8354495c-1.0414381 0-1.895874.581978-2.3393551 1.357149-.4434817.775173-.5815432 1.700721-.5815432 2.643874v3.018006h4.5922853l-.4086916 2.643873h-4.1835937v13.044772l.8510745-.115908c8.051868-1.093767 14.266113-7.999192 14.266113-16.357683 0-9.1184-7.3961715-16.526409-16.5-16.526409zm0 1.502401c8.2931715 0 15 6.717563 15 15.024008 0 7.309023-5.2231508 13.320133-12.1171875 14.67335v-9.74213h3.9697267l.8715818-5.648675h-4.8413085v-1.515605c0-.77935.142368-1.47765.3823245-1.897075.2399558-.419424.4712617-.601547 1.0385738-.601547h3.3354495v-5.026587l-.650391-.088032c-.4498441-.060967-1.4768715-.203939-3.3295898-.203939-2.0273235 0-3.7675043.55315-4.96875 1.804642-1.201245 1.251491-1.7944335 3.114995-1.7944335 5.52103v2.00858h-3.8979495v5.648675h3.8979495v9.693713c-6.7832497-1.439217-11.895996-7.396511-11.895996-14.6264 0-8.306445 6.7068285-15.024008 15-15.024008z" fill="#fbead2" transform="translate(-23 -954)"/></svg>