<svg viewBox="0 0 33 33" xmlns="http://www.w3.org/2000/svg"><g fill="#fbead2"><path d="m13.0003928 7.63432836c-2.955353 0-5.36606444 2.41071144-5.36606444 5.36606444v6.9992144c0 2.954955 2.41062694 5.3660644 5.36606444 5.3660644h6.9992144c2.9550394 0 5.3660644-2.411025 5.3660644-5.3660644v-6.9992144c0-2.9554375-2.4111094-5.36606444-5.3660644-5.36606444zm0 1.39984289h6.9992144c2.1983334 0 3.9662216 1.76743745 3.9662216 3.96622155v6.9992144c0 2.1982489-1.7679727 3.9662216-3.9662216 3.9662216h-6.9992144c-2.1987841 0-3.96622155-1.7678882-3.96622155-3.9662216v-6.9992144c0-2.1988686 1.76735295-3.96622155 3.96622155-3.96622155zm8.1657502 1.86645715c-.5156088 0-.9332286.4176198-.9332286.9332286s.4176198.9332286.9332286.9332286.9332286-.4176198.9332286-.9332286-.4176198-.9332286-.9332286-.9332286zm-4.666143.9332286c-2.5686286 0-4.666143 2.0975144-4.666143 4.666143s2.0975144 4.666143 4.666143 4.666143 4.666143-2.0975144 4.666143-4.666143-2.0975144-4.666143-4.666143-4.666143zm0 1.3998429c1.8119464 0 3.2663001 1.4543537 3.2663001 3.2663001s-1.4543537 3.2663001-3.2663001 3.2663001-3.2663001-1.4543537-3.2663001-3.2663001 1.4543537-3.2663001 3.2663001-3.2663001z"/><path d="m16.5 0c-9.11269837 0-16.5 7.38730163-16.5 16.5 0 9.1126984 7.38730163 16.5 16.5 16.5 9.1126984 0 16.5-7.3873016 16.5-16.5 0-9.11269837-7.3873016-16.5-16.5-16.5zm0 1.47761194c8.2966358 0 15.0223881 6.72575223 15.0223881 15.02238806 0 8.2966358-6.7257523 15.0223881-15.0223881 15.0223881-8.29663583 0-15.02238806-6.7257523-15.02238806-15.0223881 0-8.29663583 6.72575223-15.02238806 15.02238806-15.02238806z"/></g></svg>