<svg xmlns="http://www.w3.org/2000/svg" xmlns:xlink="http://www.w3.org/1999/xlink" viewBox="0 0 1030 859" preserveAspectRatio="xMidYMid meet" style="width: 100%; height: 100%; transform: translate3d(0px, 0px, 0px); content-visibility: visible;"><defs><clipPath id="__lottie_element_2"><rect width="1030" height="859" x="0" y="0"></rect></clipPath><clipPath id="__lottie_element_4"><path d="M0,0 L1030,0 L1030,859 L0,859z"></path></clipPath></defs><g clip-path="url(#__lottie_element_2)"><g clip-path="url(#__lottie_element_4)" transform="matrix(1,0,0,1,0,0)" opacity="1" style="display: block;"><g transform="matrix(1,0,0,1,518.1929931640625,429.5)" opacity="1" style="display: block;"><g opacity="1" transform="matrix(1.0065699815750122,0,0,0.9364500045776367,-3.193000078201294,-254.3300018310547)"><path stroke-linecap="butt" stroke-linejoin="miter" fill-opacity="0" stroke-miterlimit="4" stroke="rgb(251,234,210)" stroke-opacity="1" stroke-width="23" d=" M0,-73.31549835205078 C147.6258087158203,-73.31549835205078 267.48651123046875,-40.46282196044922 267.48651123046875,0 C267.48651123046875,40.46282196044922 147.6258087158203,73.31549835205078 0,73.31549835205078 C-147.6258087158203,73.31549835205078 -267.48651123046875,40.46282196044922 -267.48651123046875,0 C-267.48651123046875,-40.46282196044922 -147.6258087158203,-73.31549835205078 0,-73.31549835205078z"></path></g></g><g transform="matrix(1,0,0,1,515,429.5)" opacity="1" style="display: block;"><g opacity="1" transform="matrix(1,0,0,1,0,0)"><path stroke-linecap="butt" stroke-linejoin="round" fill-opacity="0" stroke="rgb(251,234,210)" stroke-opacity="1" stroke-width="23" d=" M-273.5,-258.5 C-273.5,-258.5 -390,-137.5 -390,-137.5 C-390,-137.5 -148,-20.5 -148,-20.5 C-148,-20.5 -273.5,-258.5 -273.5,-258.5z"></path></g></g><g transform="matrix(1,0,0,1,515,429.5)" opacity="1" style="display: block;"><g opacity="1" transform="matrix(1,0,0,1,0,0)"><path stroke-linecap="butt" stroke-linejoin="round" fill-opacity="0" stroke="rgb(251,234,210)" stroke-opacity="1" stroke-width="23" d=" M-273.5,-258.5 C-273.5,-258.5 -390,-137.5 -390,-137.5 C-390,-137.5 -389.25,-137.75 -389.25,-137.75 C-389.25,-137.75 -273.5,-258.5 -273.5,-258.5z"></path></g></g><g transform="matrix(1,0,0,1,757.5,461)" opacity="1" style="display: block;"><g opacity="1" transform="matrix(1,0,0,1,0,0)"><path stroke-linecap="butt" stroke-linejoin="round" fill-opacity="0" stroke="rgb(251,234,210)" stroke-opacity="1" stroke-width="23" d=" M-241.5,-216.5 C-241.5,-216.5 -391,-51.5 -391,-51.5 C-391,-51.5 -95,-51 -95,-51 C-95,-51 -241.5,-216.5 -241.5,-216.5z"></path></g></g><g transform="matrix(1,0,0,1,1091,427.5)" opacity="1" style="display: block;"><g opacity="1" transform="matrix(1,0,0,1,-24.368000030517578,9.940999984741211)"><path stroke-linecap="butt" stroke-linejoin="round" fill-opacity="0" stroke="rgb(251,234,210)" stroke-opacity="1" stroke-width="23" d=" M-277.5,-265 C-277.5,-265 -403.5,-27.5 -403.5,-27.5 C-403.5,-27.5 -161,-144.5 -161,-144.5 C-161,-144.5 -277.5,-265 -277.5,-265z"></path></g></g><g transform="matrix(1,0,0,1,515,429.5)" opacity="1" style="display: block;"><g opacity="1" transform="matrix(1,0,0,1,0,0)"><path stroke-linecap="round" stroke-linejoin="round" fill-opacity="0" stroke="rgb(251,234,210)" stroke-opacity="1" stroke-width="23" d=" M0.19200000166893005,323.0509948730469 C0.19200000166893005,323.0509948730469 -390.5199890136719,-137.0189971923828 -390.5199890136719,-137.0189971923828"></path></g></g><g transform="matrix(1,0,0,1,515,429.5)" opacity="1" style="display: block;"><g opacity="1" transform="matrix(1,0,0,1,0,0)"><path stroke-linecap="round" stroke-linejoin="round" fill-opacity="0" stroke="rgb(251,234,210)" stroke-opacity="1" stroke-width="23" d=" M0.19200000166893005,323.0509948730469 C0.19200000166893005,323.0509948730469 -390.5199890136719,-137.0189971923828 -390.5199890136719,-137.0189971923828"></path></g></g><g transform="matrix(1,0,0,1,515,429.5)" opacity="1" style="display: block;"><g opacity="1" transform="matrix(1,0,0,1,0,0)"><path stroke-linecap="round" stroke-linejoin="round" fill-opacity="0" stroke="rgb(251,234,210)" stroke-opacity="1" stroke-width="23" d=" M0.19200000166893005,323.0509948730469 C0.19200000166893005,323.0509948730469 -148.52000427246094,-22.018999099731445 -148.52000427246094,-22.018999099731445"></path></g></g><g transform="matrix(1,0,0,1,515,429.5)" opacity="1" style="display: block;"><g opacity="1" transform="matrix(1,0,0,1,0,0)"><path stroke-linecap="round" stroke-linejoin="round" fill-opacity="0" stroke="rgb(251,234,210)" stroke-opacity="1" stroke-width="23" d=" M0.19200000166893005,323.0509948730469 C0.19200000166893005,323.0509948730469 149.47999572753906,-21.53700065612793 149.47999572753906,-21.53700065612793"></path></g></g><g transform="matrix(1,0,0,1,515,429.5)" opacity="1" style="display: block;"><g opacity="1" transform="matrix(1,0,0,1,0,0)"><path stroke-linecap="round" stroke-linejoin="round" fill-opacity="0" stroke="rgb(251,234,210)" stroke-opacity="1" stroke-width="23" d=" M0.19200000166893005,323.0509948730469 C0.19200000166893005,323.0509948730469 387.4800109863281,-133.53700256347656 387.4800109863281,-133.53700256347656"></path></g></g></g></g></svg>